<?xml version="1.0" encoding="UTF-8" standalone="no"?><!DOCTYPE svg PUBLIC "-//W3C//DTD SVG 1.1//EN" "http://www.w3.org/Graphics/SVG/1.1/DTD/svg11.dtd"><svg width="583px" height="94px" viewBox="0 0 583 94" version="1.1" xmlns="http://www.w3.org/2000/svg" xmlns:xlink="http://www.w3.org/1999/xlink" xml:space="preserve" style="fill-rule:evenodd;clip-rule:evenodd;stroke-linejoin:round;stroke-miterlimit:1.41421;"><path d="M66.234,25.698c-0.29,0.112 -1.344,0.426 -1.258,0.466c-0.086,-0.04 -0.148,-0.054 -0.148,-0.13c0.112,-0.406 -1.736,1.328 -1.83,0.662c-0.048,-0.116 0.094,0.03 -0.17,-0.046c0.678,0.098 -4.15,1.64 -4.15,1.55c-0.232,-0.504 -0.176,-1 0.128,-1.456c0.386,-0.966 -0.818,-2.344 -0.364,-1.932c-0.328,-0.34 -0.328,-0.646 -0.018,-0.982c0.212,0.15 0.018,-0.054 0.128,-0.472c0.126,-0.092 -0.25,-0.622 0.094,-0.436c0.304,-0.09 0.8,-1.804 0.442,-3.022c-0.786,-1.852 -0.452,-15.224 -0.048,-14.726c0.146,-0.918 -0.708,-1.596 -0.3,-2.286c0.03,-0.696 -0.642,-0.71 -0.55,-1.2c-0.356,-1.408 -2.334,-1.39 -2.112,-1.688c-1.04,0.24 -4.888,6.466 -4.924,6.626c0.234,-0.23 -2.598,4.066 -2.548,4.078c-0.312,-0.078 -0.664,0.484 -0.726,1.126c-0.028,0.072 -1.614,2.042 -1.444,1.662c-0.544,0.908 -1.182,1.788 -1.686,2.724c0.392,-0.244 -0.696,0.756 -0.532,0.716c0.022,-0.102 -1.226,3.026 -1.24,2.756c0.116,-0.422 -1.532,1.546 -1.714,1.562c-0.344,1.418 -5.598,-2.066 -5.692,-3.656c0.012,-0.072 -0.112,-1.486 -0.818,-1.652c0.31,0.274 -3.732,-3.434 -3.428,-3.154c-2.112,-2.826 -3.784,-2.748 -6.91,-5.51c0.026,-0.04 -0.728,-1.786 -1.258,-2.406c-1.184,0.296 -2.778,2.148 -2.442,2.6c-0.506,0.212 -0.602,-0.424 -0.796,-0.646c-0.16,0.696 0.516,4.716 0.516,4.716c-0.072,0.576 0.274,3.566 0.404,3.122l0.22,0.258c0,0.03 -0.35,0.444 0.088,0.736c0.482,0.85 1.446,1.456 1.108,2.644c-0.424,0.212 0.052,1.776 -0.026,1.266c-0.478,2.468 5.274,7.1 4.48,10.384c-0.374,0.292 1.09,2.044 0.794,1.966c-0.498,0.584 -1.982,0.96 -3.02,1.236c-0.31,0.182 -0.618,0.022 -0.948,-0.072c-0.316,-0.066 -2.926,-1.146 -3.652,-0.642c-0.026,0.08 -2.16,-0.504 -2.174,-0.404c0.382,-0.43 -2.44,0.598 -2.02,-0.322c0.186,-0.714 -2.46,0.76 -1.804,0.372c-0.046,0.03 -1.152,0.656 -1.124,0.47c0.088,-0.254 -1.01,-0.024 -0.756,0.034c-0.168,-0.048 -1.294,-0.372 -1.12,-0.262c-0.626,-0.41 -0.754,0.146 -1.49,-0.206c-0.042,0.088 -0.88,0.194 -1.024,0.158c-0.058,-0.014 -1.664,0.048 -1.664,0.008c0.134,-0.06 -1.402,0.448 -1.5,0.04c0.05,-0.062 -1.216,0.904 -1.57,0.302c0.154,-0.49 -1.426,0.404 -1.676,0.446c-0.192,-0.042 -0.994,-0.392 -0.84,-0.144c-0.132,0.076 -1.122,1.302 -1.122,1.302c0.186,0.054 5.444,4.018 4.622,3.396c0,0 0.564,0.478 1.94,1.304c-0.212,0.6 2.03,0.026 1.668,1.31c2.094,-1.24 6.378,4.566 7.878,3.65c0.194,0 0.832,1.004 1.046,0.93c-0.34,-0.3 1.088,0.466 0.638,0.434c0.2,0.244 0.128,0.154 0.812,0.864c1.71,-0.072 2.442,1.35 3.008,1.832c1.884,3.642 -5.928,7.164 -6.602,9.002c-0.026,0.092 -0.026,0.172 -0.132,0.142c0.092,0.084 -1.094,0.51 -1.23,1.09l-1.168,1.528c-1.04,-0.306 -3.684,3.94 -4.754,4.478l-2.55,1.186c0,0 -0.362,0.35 -0.598,0.704c-0.232,0.368 -0.586,0.794 -0.838,0.886c-0.224,0.088 -1.808,1.658 -1.808,1.658l-0.39,0.744l0.634,0.282c0,0 -0.406,0.484 -0.468,0.696c-0.09,0.182 -0.316,0.704 0.178,0.818c0.514,0.12 0.804,0.12 0.92,0.36c0.116,0.248 2.16,0.406 2.33,0.376c0.152,-0.056 1.17,-0.514 1.17,-0.514c0.982,-0.31 4.206,-0.252 4.58,0.068c-0.066,-0.022 4.682,-1.184 4.804,-1.572c0.16,0.03 2.92,-0.972 2.92,-0.972c0.762,-0.358 2.49,-0.638 3.052,-1.284c-0.53,0.112 2.228,-0.836 3.008,-0.46c0.238,0.132 6.894,-1.262 7.12,-2.118c0.532,0.054 0.594,0.554 0.634,0.584c-0.16,0.884 -0.018,3.354 -0.348,3.774c0.004,-0.35 -0.938,0.638 -0.616,1.162c0.674,0.208 0.642,-0.02 1.046,0.956c-0.184,-0.444 0.052,1.984 -0.004,2.87c0.024,0.466 0.766,2.016 -0.462,2.63c0,0 -0.7,1.46 -0.732,1.432c0.094,-0.714 0.094,0.366 -0.04,0.164c0.622,-0.298 0.438,1.616 0.296,1.854c0.12,-0.296 -0.318,0.368 -0.368,0.136c-1.004,1.982 1.112,2.204 -0.11,2.434c0.522,0.152 0.798,2.792 0.762,2.41c0.118,0.88 0.042,1.742 -0.226,2.578c-0.18,-0.544 -0.474,1.006 -0.376,1.44c0.196,0.988 -0.294,2.852 0.644,3.286c-0.14,-0.39 0.714,0.916 0.714,0.916c2.194,0.926 2.73,-1.962 3.704,-2.418c0.334,-0.07 0.714,-1.408 1.026,-1.298c0.038,-0.11 1.354,-6.458 2.37,-6.126c-0.056,0 1.698,-2.608 2.054,-3.728c-0.016,0.082 -0.838,-0.904 0.908,-1.67c0.856,0.292 1.248,-1.994 1.464,-3.308c0.062,-0.732 0.576,-0.378 0.664,-1.162c-0.028,0.218 1.5,-2.348 1.75,-3.396c0.254,0.018 0.29,-1.162 0.46,-1.002c-0.478,-0.412 0.41,-0.902 0.296,-1.254c0.164,-0.636 0.114,-1.2 0.378,-1.146c0.264,-1.232 1.03,-0.692 1.204,-0.576c0.354,0.2 0.862,-0.116 0.924,0.796c-0.352,0.454 1.126,0.886 1.006,1.166c-0.046,-0.218 7.092,8.26 9.066,9.882c0.094,0.088 5.62,5.616 5.376,5.554c0.618,0.318 1.128,1.438 1.176,1.352c-0.23,0.366 1.05,0.948 1.282,0.948c0.83,1.482 0.88,1.172 1.322,0.924c0.146,0.656 1.262,0.336 1.664,0.558c-0.128,-0.322 0.874,-0.598 0.656,-0.956c0.308,0.106 -0.2,-1.188 0.076,-1.038c-0.352,-0.614 -2.446,-3.426 -2.306,-3.932c0.048,-0.178 0.302,-0.116 0.458,-0.076c-0.034,-0.172 -0.272,-0.336 -0.41,-0.456c0.376,-0.008 0.464,-0.212 0.254,-0.624c-0.38,0.214 -0.892,-2.196 -0.568,-2.528c0.136,-0.612 -1.708,-8.116 -2.578,-8.846c0.058,-0.258 -0.3,-1.918 -0.372,-2.054c-1.442,-0.914 -0.24,-2.726 -1.244,-3.04c-0.228,0.444 -1.272,-1.262 -1.416,-2.688c-0.482,-0.894 0,-3.008 -0.326,-2.684c-0.29,-0.324 1.494,-1.082 1.936,-0.108c3.76,1.432 10.938,-0.948 13.536,1.076c0.612,-1.16 1.992,-0.26 1.254,-0.476c-0.116,0.15 0.134,0.216 0.296,0.26c-0.34,-0.076 2.534,-0.26 2.964,-0.026c-1.104,-0.27 1.632,-0.09 1.516,-0.136c-0.968,-0.214 1.948,0.356 5.046,-1.582c1.112,-0.352 0.902,-0.932 1.374,-2.002c-0.192,0.912 0.29,-0.918 -0.652,-1.486c-5.494,-1.388 -9.864,-5.474 -15.332,-6.908c-2.122,-0.456 -5.55,-5.678 -7.366,-5.346c3.316,-3.806 6.53,-7.596 9.944,-10.826c0.662,-0.656 7.51,-8.078 7.51,-7.994c0.254,-0.376 0.642,-1.608 0.608,-1.082c0.016,-0.172 -0.068,-0.41 -0.252,-0.674c-0.012,0.094 -2.572,-1.924 -3.24,-0.672c0.906,0.564 -1.83,0.766 -2.496,0.914c-0.202,0.128 -0.374,0.082 -0.528,0.03c-0.686,-0.164 -1.584,0.62 -2.044,0.722c-0.994,-0.894 -3.504,0.766 -4.646,1.156c0.094,-0.044 -0.486,0.074 -1.374,-0.116c-0.388,0.624 -0.366,0.456 -0.278,0.394c-0.33,0.182 -0.612,0.462 -1.942,0.93c0.148,0.05 -0.852,0.47 -1.228,0.368c0.028,0.178 -0.154,0.648 -0.744,0.542c-0.446,-0.112 -0.388,-0.286 -0.55,-0.112" style="fill:#ee3123;fill-rule:nonzero;"/><path d="M113.714,27.845l15.892,0l0,48.84l-15.892,0l0,-48.84Zm2.344,-5.276l-11.964,0l10.464,-14l14.204,0l10.472,14l-11.956,0l-5.614,-7.534l-5.606,7.534Z" style="fill:#ee3123;fill-rule:nonzero;"/><rect x="137.346" y="9.495" width="15.896" height="67.188" style="fill:#ee3123;fill-rule:nonzero;"/><path d="M193.071,47.245c-0.28,-5.484 -4.12,-9.988 -9.442,-9.988c-5.606,0 -9.346,4.032 -10.288,9.988l19.73,0Zm-19.73,8.924c0.284,6.676 4.114,11.096 10.86,11.096c3.804,0 7.562,-1.79 9.054,-5.376l14.878,0c-2.894,11.298 -13.294,16.196 -24.134,16.196c-15.802,0 -26.55,-9.598 -26.55,-25.964c0,-14.96 11.878,-25.69 26.18,-25.69c17.392,0 26.08,13.182 25.348,29.738l-35.636,0Z" style="fill:#ee3123;fill-rule:nonzero;"/><path d="M229.856,72.002c8.402,0 11.646,-7.268 11.646,-14.458c0,-7.582 -3.4,-14.532 -12.012,-14.532c-8.548,0 -11.424,7.336 -11.424,14.826c0,7.188 3.692,14.164 11.79,14.164m17.7,4.682l-6.268,0l0,-5.186l-0.148,0c-2.058,4.22 -6.932,6.072 -12.158,6.072c-11.728,0 -17.548,-9.352 -17.548,-20.184c0,-10.822 5.75,-19.95 17.408,-19.95c3.894,0 9.5,1.478 12.298,5.998l0.148,0l0,-19.72l6.268,0l0,52.97Z" style="fill:#ee3123;fill-rule:nonzero;"/><path d="M279.972,53.835c-0.29,-6.016 -4.772,-10.826 -10.978,-10.826c-6.552,0 -10.458,4.956 -10.898,10.826l21.876,0Zm6.054,10.678c-1.692,8.456 -7.736,13.058 -16.28,13.058c-12.17,0 -17.924,-8.452 -18.294,-20.184c0,-11.502 7.53,-19.954 17.924,-19.954c13.48,0 17.61,12.682 17.242,21.966l-28.522,0c-0.22,6.688 3.544,12.6 11.858,12.6c5.166,0 8.768,-2.534 9.88,-7.486l6.192,0Z" style="fill:#ee3123;fill-rule:nonzero;"/><path d="M290.682,9.496l49.18,0l0,14.02l-31.798,0l0,13.746l27.494,0l0,13.538l-27.494,0l0,25.884l-17.382,0l0,-67.188Z" style="fill:#ee3123;fill-rule:nonzero;"/><path d="M343.033,27.845l15.432,0l0,8.562l0.182,0c2.34,-6.21 7.754,-9.514 14.598,-9.514c1.204,0 2.5,0.118 3.732,0.402l0,14.572c-2.06,-0.574 -3.92,-0.948 -6.084,-0.948c-7.848,0 -11.974,5.458 -11.974,11.584l0,24.182l-15.886,0l0,-48.84Z" style="fill:#ee3123;fill-rule:nonzero;"/><path d="M397.548,68.21c7.55,0 10.086,-4.326 9.714,-14.398c-2.24,1.402 -6.356,1.704 -9.814,2.63c-3.546,0.838 -6.546,2.356 -6.546,6.214c0,3.946 3.07,5.554 6.646,5.554m-20.57,-25.314c0.282,-6.382 3.274,-10.536 7.554,-13.084c4.304,-2.43 9.912,-3.382 15.436,-3.382c11.5,0 22.64,2.55 22.64,16.38l0,21.356c0,4.138 0,8.654 1.868,12.518l-16.002,0c-0.548,-1.52 -0.752,-3.008 -0.934,-4.612c-4.108,4.32 -10.184,6.012 -15.99,6.012c-9.256,0 -16.54,-4.692 -16.54,-14.776c0,-15.892 17.2,-14.666 28.23,-16.932c2.72,-0.56 4.202,-1.5 4.202,-4.51c0,-3.664 -4.372,-5.076 -7.656,-5.076c-4.402,0 -7.19,1.984 -7.946,6.106l-14.862,0Z" style="fill:#ee3123;fill-rule:nonzero;"/><path d="M428.389,27.845l15.434,0l0,6.684l0.198,0c2.896,-4.992 9.43,-8.098 15.222,-8.098c16.184,0 17.49,11.858 17.49,18.922l0,31.332l-15.888,0l0,-23.62c0,-6.688 0.748,-13.456 -7.956,-13.456c-5.972,0 -8.596,5.072 -8.596,10.436l0,26.64l-15.904,0l0,-48.84Z" style="fill:#ee3123;fill-rule:nonzero;"/><path d="M514.235,45.728c-0.1,-4.132 -3.75,-7.06 -7.754,-7.06c-8.888,0 -10.29,7.622 -10.29,14.398c0,6.304 2.714,12.788 9.446,12.788c5.496,0 8.326,-3.198 9.06,-8.354l15.43,0c-1.398,13.062 -11.502,20.584 -24.408,20.584c-14.576,0 -25.442,-10.064 -25.442,-25.018c0,-15.518 9.83,-26.636 25.442,-26.636c12.072,0 22.826,6.4 23.948,19.298l-15.432,0Z" style="fill:#ee3123;fill-rule:nonzero;"/><path d="M566.685,47.245c-0.28,-5.484 -4.11,-9.988 -9.446,-9.988c-5.614,0 -9.336,4.032 -10.278,9.988l19.724,0Zm-19.724,8.924c0.28,6.676 4.114,11.096 10.85,11.096c3.82,0 7.566,-1.79 9.054,-5.376l14.888,0c-2.914,11.298 -13.292,16.196 -24.146,16.196c-15.79,0 -26.548,-9.598 -26.548,-25.964c0,-14.96 11.884,-25.69 26.18,-25.69c17.406,0 26.09,13.182 25.338,29.738l-35.616,0Z" style="fill:#ee3123;fill-rule:nonzero;"/></svg>
