<svg id="Calque_1" data-name="Calque 1" xmlns="http://www.w3.org/2000/svg" viewBox="0 0 375.39 290.88"><defs><style>.cls-1{font-size:98.3px;font-family:GillSans-UltraBold, Gill Sans Ultra Bold;}.cls-1,.cls-2{fill:#2891d8;}</style></defs><title>Sans titre - 1</title><text class="cls-1" transform="translate(113.37 251.48) scale(0.98 1)">help</text><path class="cls-2" d="M164.54,66.66,149,82.32a31.77,31.77,0,0,1-7.55,32.06c-12.36,12.46-32.8,12.31-45.54-.34S82.85,81,95.22,68.5A32,32,0,0,1,134.52,64l14.69-14.81c-20.94-15.53-50.39-14-68.87,4.58C60,74.22,60.52,107.8,81.47,128.59s54.54,21,74.86.55C173,112.36,175.64,86.79,164.54,66.66Z" transform="translate(-65.42 125.7)"/><text x="-65.42" y="125.7"></text></svg>